<svg version="1.1" id="Layer_1" xmlns="http://www.w3.org/2000/svg" xmlns:xlink="http://www.w3.org/1999/xlink" x="0px" y="0px"
	 width="100%" viewBox="0 0 300 300" enable-background="new 0 0 300 300" xml:space="preserve">
<path fill="#010102" opacity="1.000000" stroke="none" 
	d="
M173.000000,301.000000 
	C115.333344,301.000000 58.166687,301.000000 1.000023,301.000000 
	C1.000015,201.000031 1.000015,101.000053 1.000008,1.000063 
	C100.999947,1.000042 200.999893,1.000042 300.999878,1.000021 
	C300.999939,100.999939 300.999939,200.999878 300.999969,300.999908 
	C258.500000,301.000000 216.000000,301.000000 173.000000,301.000000 
M285.068451,176.544830 
	C288.031921,158.430771 287.889099,140.346161 283.362640,122.538719 
	C267.656464,60.749435 212.339417,18.898657 148.333084,20.174294 
	C109.572739,20.946781 77.193893,36.137924 51.470181,64.771469 
	C21.888700,97.699158 9.087644,136.177399 18.489227,180.112045 
	C34.002205,252.605927 102.785843,298.108765 175.853943,285.118164 
	C231.155273,275.286285 274.686493,232.324112 285.068451,176.544830 
z"/>
<path fill="#FAFBFC" opacity="1.000000" stroke="none" 
	d="
M285.025024,176.980911 
	C274.686493,232.324112 231.155273,275.286285 175.853943,285.118164 
	C102.785843,298.108765 34.002205,252.605927 18.489227,180.112045 
	C9.087644,136.177399 21.888700,97.699158 51.470181,64.771469 
	C77.193893,36.137924 109.572739,20.946781 148.333084,20.174294 
	C212.339417,18.898657 267.656464,60.749435 283.362640,122.538719 
	C287.889099,140.346161 288.031921,158.430771 285.025024,176.980911 
M63.228970,229.254395 
	C95.277641,264.154755 135.099258,275.019287 180.345047,264.720581 
	C244.803574,250.048721 277.196350,187.664139 265.633331,130.924911 
	C252.669144,67.310570 189.104477,27.064066 125.397179,41.933662 
	C42.063900,61.384056 4.985673,160.553177 63.228970,229.254395 
z"/>
<path fill="#0D1B27" opacity="1.000000" stroke="none" 
	d="
M63.004593,228.978455 
	C4.985673,160.553177 42.063900,61.384056 125.397179,41.933662 
	C189.104477,27.064066 252.669144,67.310570 265.633331,130.924911 
	C277.196350,187.664139 244.803574,250.048721 180.345047,264.720581 
	C135.099258,275.019287 95.277641,264.154755 63.004593,228.978455 
M179.791000,81.356651 
	C179.638977,81.707794 179.486954,82.058929 179.281723,82.249802 
	C179.281723,82.249802 179.441360,82.304840 178.775864,82.369484 
	C178.538681,82.948715 178.301514,83.527954 178.035828,84.034431 
	C178.035828,84.034431 178.113327,84.024361 177.554672,84.349785 
	C177.429474,84.959145 177.304276,85.568504 177.138153,86.082375 
	C177.138153,86.082375 177.241943,86.086922 176.527374,86.544701 
	C176.410904,97.631676 176.285309,108.718597 176.220642,119.805878 
	C176.218643,120.149696 176.847992,120.497208 177.642838,121.354942 
	C180.235123,126.693932 183.554138,128.834961 187.966904,127.773338 
	C193.147781,126.526924 194.299683,122.757225 194.271255,117.931358 
	C194.217529,108.812981 194.453949,99.691711 194.650620,90.573395 
	C194.821960,82.630280 190.436905,78.847221 181.650879,80.094200 
	C181.193237,80.547112 180.735596,81.000031 180.230362,81.273926 
	C180.230362,81.273926 180.407166,81.329185 179.791000,81.356651 
M118.842270,80.131783 
	C115.152634,78.739929 112.177254,79.725777 109.225929,83.238625 
	C108.556175,85.577080 107.351997,87.906113 107.310577,90.255638 
	C107.144554,99.671181 107.142410,109.101379 107.539612,118.506737 
	C107.638138,120.839523 109.462372,123.099434 110.580559,125.431290 
	C110.580559,125.431290 110.621284,125.517441 110.923843,126.027161 
	C111.614342,126.369263 112.304848,126.711372 113.170174,127.271233 
	C113.170174,127.271233 113.445831,127.226524 114.086197,127.754097 
	C117.211411,128.205215 120.338608,128.662354 122.036888,125.044067 
	C122.036888,125.044067 122.111877,125.150085 122.739258,124.899521 
	C123.316971,123.941422 123.894684,122.983322 125.170395,121.708931 
	C125.439545,121.137093 125.940079,120.566582 125.943375,119.993217 
	C125.999321,110.257042 126.033607,100.520126 125.936874,90.784714 
	C125.927628,89.854050 125.015984,88.932350 124.375999,87.300430 
	C124.086372,86.393425 123.796745,85.486412 123.309624,83.942726 
	C121.996582,82.816872 120.683533,81.691017 118.842270,80.131783 
M206.354477,101.918480 
	C206.411942,129.904358 206.513947,157.890259 206.508469,185.876114 
	C206.505646,200.344528 198.784409,207.912338 184.168961,207.936508 
	C162.346252,207.972580 140.523438,207.980179 118.700699,207.958344 
	C104.331535,207.943954 96.063232,199.722580 96.023773,185.473221 
	C95.948578,158.319992 95.887985,131.166748 95.822014,104.013504 
	C95.818588,102.603470 95.821579,101.193420 95.821579,99.595810 
	C84.263184,103.628120 76.108055,115.691170 76.034714,128.640167 
	C75.924324,148.130157 75.934853,167.621246 75.988510,187.111633 
	C76.054085,210.931686 91.825996,226.965912 115.609421,227.131927 
	C140.096252,227.302872 164.585892,227.291016 189.072952,227.139374 
	C210.498444,227.006699 226.898041,211.088943 227.313400,189.783188 
	C227.709473,169.466721 227.718109,149.138824 227.601608,128.817657 
	C227.529587,116.256104 221.535629,106.958321 210.544357,100.956841 
	C209.269379,100.260674 207.597122,100.292099 205.759827,100.172020 
	C205.687225,100.280220 205.531723,100.456810 205.555450,100.485588 
	C205.714935,100.678963 205.912521,100.840942 206.354477,101.918480 
M156.476898,98.785881 
	C149.721054,98.785881 142.965225,98.785881 136.219162,98.785881 
	C136.219162,105.779320 136.219162,112.180672 136.219162,119.041809 
	C145.479950,119.041809 154.434967,119.119118 163.383911,118.921471 
	C164.272781,118.901833 165.837891,117.234207 165.876709,116.281998 
	C166.111557,110.523544 165.993607,104.750717 165.993607,98.786331 
	C162.769897,98.786331 160.120193,98.786331 156.476898,98.785881 
M126.356331,178.248840 
	C135.339828,179.319534 142.055252,172.990234 140.325851,165.082504 
	C139.176224,159.825775 134.593613,156.061279 129.315887,156.038116 
	C124.101097,156.015228 119.266121,159.900299 118.180908,164.985458 
	C117.051926,170.275696 119.849129,175.192291 126.356331,178.248840 
M184.606033,164.323334 
	C181.763260,158.320206 177.628006,155.524826 172.439056,156.098633 
	C167.868134,156.604111 163.674606,160.394318 162.823700,164.862579 
	C161.941803,169.493652 163.204025,173.427887 167.030579,176.274002 
	C170.784439,179.066071 174.908325,179.741425 179.089005,177.294693 
	C183.724716,174.581680 185.525696,170.394394 184.606033,164.323334 
M186.953537,257.023590 
	C189.973419,257.190552 191.374252,255.648697 190.969193,252.767609 
	C190.356216,248.407593 189.502167,244.081482 188.697861,239.436783 
	C181.368103,242.024689 185.463684,235.028519 182.433640,232.848740 
	C180.695297,233.150238 178.393204,233.549530 176.091110,233.948822 
	C176.028687,234.383774 175.966278,234.818741 175.903854,235.253708 
	C186.741180,240.861176 181.140396,249.723480 180.802856,258.447388 
	C182.716064,257.969177 184.458023,257.533783 186.953537,257.023590 
M202.588043,253.465683 
	C204.832840,250.550583 207.077652,247.635483 209.051086,245.072769 
	C207.087051,242.758789 205.100998,240.418884 202.287231,237.103775 
	C201.612854,239.648544 201.034607,241.173584 200.836304,242.746521 
	C200.592941,244.676956 201.348541,247.070312 200.455887,248.508621 
	C198.820755,251.143234 200.499054,252.014114 202.588043,253.465683 
M152.130142,235.979752 
	C152.764862,236.945557 153.399597,237.911377 154.782211,240.015198 
	C156.218399,236.102036 157.183090,233.473526 158.287125,230.465393 
	C153.515488,229.671570 151.951706,231.493942 152.130142,235.979752 
z"/>
<path fill="#FBFCFC" opacity="1.000000" stroke="none" 
	d="
M206.109039,99.986206 
	C207.597122,100.292099 209.269379,100.260674 210.544357,100.956841 
	C221.535629,106.958321 227.529587,116.256104 227.601608,128.817657 
	C227.718109,149.138824 227.709473,169.466721 227.313400,189.783188 
	C226.898041,211.088943 210.498444,227.006699 189.072952,227.139374 
	C164.585892,227.291016 140.096252,227.302872 115.609421,227.131927 
	C91.825996,226.965912 76.054085,210.931686 75.988510,187.111633 
	C75.934853,167.621246 75.924324,148.130157 76.034714,128.640167 
	C76.108055,115.691170 84.263184,103.628120 95.821579,99.595810 
	C95.821579,101.193420 95.818588,102.603470 95.822014,104.013504 
	C95.887985,131.166748 95.948578,158.319992 96.023773,185.473221 
	C96.063232,199.722580 104.331535,207.943954 118.700699,207.958344 
	C140.523438,207.980179 162.346252,207.972580 184.168961,207.936508 
	C198.784409,207.912338 206.505646,200.344528 206.508469,185.876114 
	C206.513947,157.890259 206.411942,129.904358 206.326202,101.210144 
	C206.234955,100.329933 206.171997,100.158073 206.109039,99.986206 
z"/>
<path fill="#F6C331" opacity="1.000000" stroke="none" 
	d="
M182.379013,80.111725 
	C190.436905,78.847221 194.821960,82.630280 194.650620,90.573395 
	C194.453949,99.691711 194.217529,108.812981 194.271255,117.931358 
	C194.299683,122.757225 193.147781,126.526924 187.966904,127.773338 
	C183.554138,128.834961 180.235123,126.693932 177.448181,120.647171 
	C177.249680,108.655243 177.245804,97.371086 177.241943,86.086922 
	C177.241943,86.086922 177.138153,86.082375 177.388489,85.930771 
	C177.797012,85.194229 177.955170,84.609291 178.113327,84.024361 
	C178.113327,84.024361 178.035828,84.034431 178.304718,83.925270 
	C178.862839,83.312347 179.152100,82.808594 179.441360,82.304840 
	C179.441360,82.304840 179.281723,82.249802 179.556732,82.228973 
	C180.023529,81.915154 180.215347,81.622169 180.407166,81.329185 
	C180.407166,81.329185 180.230362,81.273926 180.559204,81.270706 
	C181.385040,80.882225 181.882034,80.496979 182.379013,80.111725 
z"/>
<path fill="#FDFEFE" opacity="1.000000" stroke="none" 
	d="
M156.973694,98.786102 
	C160.120193,98.786331 162.769897,98.786331 165.993607,98.786331 
	C165.993607,104.750717 166.111557,110.523544 165.876709,116.281998 
	C165.837891,117.234207 164.272781,118.901833 163.383911,118.921471 
	C154.434967,119.119118 145.479950,119.041809 136.219162,119.041809 
	C136.219162,112.180672 136.219162,105.779320 136.219162,98.785881 
	C142.965225,98.785881 149.721054,98.785881 156.973694,98.786102 
z"/>
<path fill="#F7F9F9" opacity="1.000000" stroke="none" 
	d="
M125.986267,178.151596 
	C119.849129,175.192291 117.051926,170.275696 118.180908,164.985458 
	C119.266121,159.900299 124.101097,156.015228 129.315887,156.038116 
	C134.593613,156.061279 139.176224,159.825775 140.325851,165.082504 
	C142.055252,172.990234 135.339828,179.319534 125.986267,178.151596 
z"/>
<path fill="#F8F9FA" opacity="1.000000" stroke="none" 
	d="
M184.704926,164.710403 
	C185.525696,170.394394 183.724716,174.581680 179.089005,177.294693 
	C174.908325,179.741425 170.784439,179.066071 167.030579,176.274002 
	C163.204025,173.427887 161.941803,169.493652 162.823700,164.862579 
	C163.674606,160.394318 167.868134,156.604111 172.439056,156.098633 
	C177.628006,155.524826 181.763260,158.320206 184.704926,164.710403 
z"/>
<path fill="#FDC826" opacity="1.000000" stroke="none" 
	d="
M113.445831,127.226524 
	C113.445831,127.226524 113.170174,127.271233 113.040619,126.806717 
	C112.147804,126.067284 111.384544,125.792366 110.621284,125.517441 
	C110.621284,125.517441 110.580559,125.431290 110.667236,125.011848 
	C110.162529,121.450401 109.167114,118.321983 109.060898,115.163658 
	C108.812782,107.785828 108.991707,100.393639 109.370163,93.053246 
	C110.285767,93.440590 111.100014,93.656311 111.326248,94.144516 
	C112.457642,96.586052 112.852570,100.505386 114.612404,101.234032 
	C116.856270,102.163101 120.159599,100.533363 123.014618,100.474747 
	C122.719269,109.011971 122.415573,117.081024 122.111877,125.150085 
	C122.111877,125.150085 122.036888,125.044067 121.699463,125.075287 
	C118.723297,125.813187 116.084564,126.519859 113.445831,127.226524 
z"/>
<path fill="#000000" opacity="1.000000" stroke="none" 
	d="
M186.576752,257.061005 
	C184.458023,257.533783 182.716064,257.969177 180.802856,258.447388 
	C181.140396,249.723480 186.741180,240.861176 175.903854,235.253708 
	C175.966278,234.818741 176.028687,234.383774 176.091110,233.948822 
	C178.393204,233.549530 180.695297,233.150238 182.433640,232.848740 
	C185.463684,235.028519 181.368103,242.024689 188.697861,239.436783 
	C189.502167,244.081482 190.356216,248.407593 190.969193,252.767609 
	C191.374252,255.648697 189.973419,257.190552 186.576752,257.061005 
z"/>
<path fill="#DBB948" opacity="1.000000" stroke="none" 
	d="
M108.997681,93.007263 
	C108.991707,100.393639 108.812782,107.785828 109.060898,115.163658 
	C109.167114,118.321983 110.162529,121.450401 110.623642,124.992622 
	C109.462372,123.099434 107.638138,120.839523 107.539612,118.506737 
	C107.142410,109.101379 107.144554,99.671181 107.310577,90.255638 
	C107.351997,87.906113 108.556175,85.577080 109.633698,83.138733 
	C110.041473,83.038849 110.243294,83.241249 110.152184,83.623260 
	C109.706604,87.005928 109.352142,90.006599 108.997681,93.007263 
z"/>
<path fill="#000000" opacity="1.000000" stroke="none" 
	d="
M202.270325,253.376617 
	C200.499054,252.014114 198.820755,251.143234 200.455887,248.508621 
	C201.348541,247.070312 200.592941,244.676956 200.836304,242.746521 
	C201.034607,241.173584 201.612854,239.648544 202.287231,237.103775 
	C205.100998,240.418884 207.087051,242.758789 209.051086,245.072769 
	C207.077652,247.635483 204.832840,250.550583 202.270325,253.376617 
z"/>
<path fill="#12170B" opacity="1.000000" stroke="none" 
	d="
M124.523262,88.006493 
	C125.015984,88.932350 125.927628,89.854050 125.936874,90.784714 
	C126.033607,100.520126 125.999321,110.257042 125.943375,119.993217 
	C125.940079,120.566582 125.439545,121.137093 124.806229,121.395874 
	C124.446404,111.443939 124.450745,101.805054 124.604523,92.034927 
	C124.790833,91.776482 124.885498,91.631485 124.852898,91.525711 
	C124.778870,91.285583 124.642258,91.064743 124.511528,90.482620 
	C124.502403,89.421608 124.512833,88.714050 124.523262,88.006493 
z"/>
<path fill="#DBB948" opacity="1.000000" stroke="none" 
	d="
M124.455093,92.166176 
	C124.450745,101.805054 124.446404,111.443939 124.457230,121.554016 
	C123.894684,122.983322 123.316971,123.941422 122.425568,125.024803 
	C122.415573,117.081024 122.719269,109.011971 123.023132,100.008041 
	C122.980354,94.408058 122.937408,89.742935 123.048248,84.953972 
	C123.202026,84.830124 123.507126,84.579407 123.507126,84.579407 
	C123.796745,85.486412 124.086372,86.393425 124.449631,87.653458 
	C124.512833,88.714050 124.502403,89.421608 124.401108,90.810028 
	C124.358536,91.715981 124.406815,91.941078 124.455093,92.166176 
z"/>
<path fill="#000000" opacity="1.000000" stroke="none" 
	d="
M152.080688,235.603638 
	C151.951706,231.493942 153.515488,229.671570 158.287125,230.465393 
	C157.183090,233.473526 156.218399,236.102036 154.782211,240.015198 
	C153.399597,237.911377 152.764862,236.945557 152.080688,235.603638 
z"/>
<path fill="#171502" opacity="1.000000" stroke="none" 
	d="
M176.884659,86.315811 
	C177.245804,97.371086 177.249680,108.655243 177.218277,120.391205 
	C176.847992,120.497208 176.218643,120.149696 176.220642,119.805878 
	C176.285309,108.718597 176.410904,97.631676 176.884659,86.315811 
z"/>
<path fill="#DBB948" opacity="1.000000" stroke="none" 
	d="
M109.940765,82.937454 
	C112.177254,79.725777 115.152634,78.739929 118.991638,80.485764 
	C119.141006,80.839752 118.912689,81.115311 118.518829,81.077049 
	C115.497742,81.772942 112.870522,82.507095 110.243294,83.241257 
	C110.243294,83.241249 110.041473,83.038849 109.940765,82.937454 
z"/>
<path fill="#DBB948" opacity="1.000000" stroke="none" 
	d="
M113.766014,127.490311 
	C116.084564,126.519859 118.723297,125.813187 121.755867,125.107445 
	C120.338608,128.662354 117.211411,128.205215 113.766014,127.490311 
z"/>
<path fill="#DBB948" opacity="1.000000" stroke="none" 
	d="
M119.255753,80.702454 
	C120.683533,81.691017 121.996582,82.816872 123.408371,84.261063 
	C123.507126,84.579407 123.202026,84.830124 122.787659,84.781792 
	C121.219749,83.527412 120.066223,82.321358 118.912689,81.115311 
	C118.912689,81.115311 119.141006,80.839752 119.255753,80.702454 
z"/>
<path fill="#DBB948" opacity="1.000000" stroke="none" 
	d="
M110.772568,125.772301 
	C111.384544,125.792366 112.147804,126.067284 112.953201,126.697838 
	C112.304848,126.711372 111.614342,126.369263 110.772568,125.772301 
z"/>
<path fill="#171502" opacity="1.000000" stroke="none" 
	d="
M177.834000,84.187073 
	C177.955170,84.609291 177.797012,85.194229 177.408966,85.978516 
	C177.304276,85.568504 177.429474,84.959145 177.834000,84.187073 
z"/>
<path fill="#171502" opacity="1.000000" stroke="none" 
	d="
M179.108612,82.337158 
	C179.152100,82.808594 178.862839,83.312347 178.318970,83.961655 
	C178.301514,83.527954 178.538681,82.948715 179.108612,82.337158 
z"/>
<path fill="#171502" opacity="1.000000" stroke="none" 
	d="
M182.014954,80.102966 
	C181.882034,80.496979 181.385040,80.882225 180.583008,81.360214 
	C180.735596,81.000031 181.193237,80.547112 182.014954,80.102966 
z"/>
<path fill="#171502" opacity="1.000000" stroke="none" 
	d="
M180.099091,81.342918 
	C180.215347,81.622169 180.023529,81.915154 179.583313,82.309097 
	C179.486954,82.058929 179.638977,81.707794 180.099091,81.342918 
z"/>
<path fill="#07111C" opacity="1.000000" stroke="none" 
	d="
M205.934433,100.079117 
	C206.171997,100.158073 206.234955,100.329933 206.197845,100.757446 
	C205.912521,100.840942 205.714935,100.678963 205.555450,100.485588 
	C205.531723,100.456810 205.687225,100.280220 205.934433,100.079117 
z"/>
<path fill="#FFCA2A" opacity="1.000000" stroke="none" 
	d="
M118.518829,81.077049 
	C120.066223,82.321358 121.219749,83.527412 122.633873,84.905640 
	C122.937408,89.742935 122.980354,94.408058 123.014778,99.539879 
	C120.159599,100.533363 116.856270,102.163101 114.612404,101.234032 
	C112.852570,100.505386 112.457642,96.586052 111.326248,94.144516 
	C111.100014,93.656311 110.285767,93.440590 109.370163,93.053246 
	C109.352142,90.006599 109.706604,87.005928 110.152184,83.623260 
	C112.870522,82.507095 115.497742,81.772942 118.518829,81.077049 
z"/>
<path fill="#6F622B" opacity="1.000000" stroke="none" 
	d="
M124.604523,92.034927 
	C124.406815,91.941078 124.358536,91.715981 124.420670,91.163475 
	C124.642258,91.064743 124.778870,91.285583 124.852898,91.525711 
	C124.885498,91.631485 124.790833,91.776482 124.604523,92.034927 
z"/>
</svg>